<svg xmlns="http://www.w3.org/2000/svg" width="113.193" height="113.192" viewBox="0 0 113.193 113.192">
  <g id="stamp" transform="translate(-222.016 -442.36) rotate(-20)">
    <g id="stamp-2" data-name="stamp">
      <circle id="Ellipse_41" data-name="Ellipse 41" cx="32.504" cy="32.504" r="32.504" transform="translate(58.039 531.039)" fill="#eaaca0"/>
      <g id="warranty" transform="translate(47 520)">
        <path id="Path_179" data-name="Path 179" d="M49.213,16.332A32.881,32.881,0,1,0,82.095,49.213,32.881,32.881,0,0,0,49.213,16.332Zm0,63.348A30.467,30.467,0,1,1,79.68,49.213,30.467,30.467,0,0,1,49.213,79.68Z" transform="translate(-5.057 -5.056)" fill="#eaaca0"/>
        <path id="Path_180" data-name="Path 180" d="M86.931,48.015a6.156,6.156,0,0,0,0-7.744L84.952,37.8a3.782,3.782,0,0,1-.678-3.421l.883-3.029a6.232,6.232,0,0,0-2.97-7.166l-2.764-1.518a3.781,3.781,0,0,1-1.942-2.9l-.345-3.142a6.156,6.156,0,0,0-5.478-5.478l-3.142-.345a3.779,3.779,0,0,1-2.9-1.941L64.1,6.1a6.156,6.156,0,0,0-7.167-2.97l-3.028.882a3.788,3.788,0,0,1-3.422-.679L48.015,1.355a6.159,6.159,0,0,0-7.744,0L37.8,3.334a3.794,3.794,0,0,1-3.421.678l-3.029-.883A6.231,6.231,0,0,0,24.186,6.1L22.668,8.863a3.781,3.781,0,0,1-2.9,1.942l-3.142.345a6.156,6.156,0,0,0-5.478,5.478l-.345,3.142a3.779,3.779,0,0,1-1.941,2.9L6.1,24.184a6.158,6.158,0,0,0-2.97,7.167l.884,3.028A3.788,3.788,0,0,1,3.335,37.8L1.357,40.27a6.156,6.156,0,0,0,0,7.744l1.978,2.469A3.782,3.782,0,0,1,4.013,53.9L3.13,56.933A6.232,6.232,0,0,0,6.1,64.1l2.764,1.518a3.782,3.782,0,0,1,1.942,2.9l.345,3.142a6.156,6.156,0,0,0,5.478,5.478l3.142.345a3.779,3.779,0,0,1,2.9,1.941l1.518,2.765a6.156,6.156,0,0,0,7.167,2.97l3.028-.884a3.794,3.794,0,0,1,3.422.679l2.469,1.978a6.156,6.156,0,0,0,7.744,0l2.469-1.978a3.784,3.784,0,0,1,3.421-.678l3.029.883a6.157,6.157,0,0,0,7.166-2.97l1.518-2.764a3.782,3.782,0,0,1,2.9-1.942l3.142-.345a6.156,6.156,0,0,0,5.478-5.478l.345-3.142a3.779,3.779,0,0,1,1.941-2.9L82.185,64.1a6.158,6.158,0,0,0,2.97-7.167l-.884-3.028a3.788,3.788,0,0,1,.679-3.422Zm-3.863.961a6.2,6.2,0,0,0-1.112,5.607l.884,3.028a3.757,3.757,0,0,1-1.813,4.373L78.262,63.5a6.194,6.194,0,0,0-3.18,4.753L74.737,71.4a3.759,3.759,0,0,1-3.343,3.343l-3.143.345A6.2,6.2,0,0,0,63.5,78.264l-1.518,2.765a3.759,3.759,0,0,1-4.372,1.813l-3.028-.884a6.2,6.2,0,0,0-5.606,1.111l-2.469,1.978a3.757,3.757,0,0,1-4.727,0L39.31,83.069A6.2,6.2,0,0,0,33.7,81.957l-3.027.884A3.761,3.761,0,0,1,26.3,81.028l-1.518-2.765a6.194,6.194,0,0,0-4.753-3.18l-3.142-.345a3.759,3.759,0,0,1-3.343-3.343L13.2,68.252A6.2,6.2,0,0,0,10.022,63.5L7.257,61.982A3.8,3.8,0,0,1,5.445,57.61l.884-3.028a6.2,6.2,0,0,0-1.111-5.606l-1.98-2.469a3.758,3.758,0,0,1,0-4.727L5.216,39.31A6.2,6.2,0,0,0,6.328,33.7l-.883-3.028A3.757,3.757,0,0,1,7.258,26.3l2.765-1.518a6.194,6.194,0,0,0,3.18-4.753l.345-3.142A3.759,3.759,0,0,1,16.9,13.549l3.143-.345a6.2,6.2,0,0,0,4.753-3.181l1.518-2.765a3.8,3.8,0,0,1,4.367-1.814l3.028.884A6.2,6.2,0,0,0,39.31,5.217l2.469-1.98a3.757,3.757,0,0,1,4.726,0l2.469,1.978a6.208,6.208,0,0,0,5.607,1.112l3.028-.883a3.762,3.762,0,0,1,4.373,1.813L63.5,10.023a6.194,6.194,0,0,0,4.753,3.18l3.142.345a3.759,3.759,0,0,1,3.343,3.343l.345,3.143a6.2,6.2,0,0,0,3.181,4.753L81.029,26.3a3.8,3.8,0,0,1,1.813,4.372L81.958,33.7a6.2,6.2,0,0,0,1.111,5.606l1.978,2.469a3.758,3.758,0,0,1,0,4.727Z" transform="translate(0.013 0.014)" fill="#eaaca0"/>
      </g>
    </g>
    <text id="Best_Seller" data-name="Best 
Seller" transform="translate(92.305 559.078)" fill="#45516d" font-size="18" font-family="Assistant-ExtraBold, Assistant" font-weight="800"><tspan x="-19" y="0">Best </tspan><tspan x="-23" y="19">Seller</tspan></text>
  </g>
</svg>
